# xmcd
#
# Track frame offsets:
#	150
#	10276
#	22878
#	36540
#	51591
#	62064
#	78024
#	89868
#	101127
#	123145
#	136840
#	162730
#
# Disc length: 2297 seconds
#
# Revision: 1
# Processed by: cddbd v1.5.1PL0 Copyright (c) Steve Scherf et al.
# Submitted via: audiograbber 1.83.01
#
DISCID=a308f70c
DTITLE=Various Artist - Carnival!
DYEAR=2000
DGENRE=latin
TTITLE0=Armand Frydman and Denis Hekimian - Samba Carnaval
TTITLE1=Armand Frydman and Denis Hekimian - Salasarico
TTITLE2=Nosotros - P'A La Paya
TTITLE3=The Teddy Lasry Band - Samba Rio
TTITLE4=The Teddy Lasry Band - Carnival Do Brasil
TTITLE5=Nosotros - Vete De Aqui
TTITLE6=Cariocas De Rio - One Note Samba
TTITLE7=Sudamerica - O Sambista
TTITLE8=Sudamerica - El Podor De La Musica
TTITLE9=Nosotros - A Gozar
TTITLE10=Alvaro Gomez-orozco - La Bamba Salsa
TTITLE11=Sudamerica - Sunset Samba
EXTD=
EXTT0=
EXTT1=
EXTT2=
EXTT3=
EXTT4=
EXTT5=
EXTT6=
EXTT7=
EXTT8=
EXTT9=
EXTT10=
EXTT11=
PLAYORDER=
